<?xml version="1.0" standalone="no"?>
<!DOCTYPE svg PUBLIC "-//W3C//DTD SVG 20010904//EN"
 "http://www.w3.org/TR/2001/REC-SVG-20010904/DTD/svg10.dtd">
<svg version="1.0" xmlns="http://www.w3.org/2000/svg"
 width="2000.000000pt" height="320.000000pt" viewBox="0 0 2000.000000 320.000000"
 preserveAspectRatio="xMidYMid meet">
<metadata>
Created by potrace 1.15, written by Peter Selinger 2001-2017
</metadata>
<g transform="translate(0.000000,320.000000) scale(0.100000,-0.100000)"
fill="#000000" stroke="none">
<path d="M1970 1690 l0 -1160 290 0 290 0 0 1160 0 1160 -290 0 -290 0 0
-1160z"/>
<path d="M2830 1690 l0 -1160 290 0 290 0 0 1160 0 1160 -290 0 -290 0 0
-1160z"/>
<path d="M7530 1325 l0 -795 165 0 165 0 0 795 0 795 -165 0 -165 0 0 -795z"/>
<path d="M5311 1705 c-88 -16 -197 -68 -262 -124 -64 -56 -134 -162 -166 -251
-34 -98 -43 -268 -19 -380 58 -270 251 -432 535 -447 275 -15 468 101 560 336
l21 51 -144 0 -143 0 -26 -39 c-19 -28 -45 -49 -91 -71 -61 -31 -71 -32 -148
-28 -157 9 -223 72 -254 241 l-6 37 417 0 418 0 -6 98 c-8 117 -26 194 -71
287 -42 88 -86 143 -156 196 -71 54 -127 78 -220 95 -92 16 -143 16 -239 -1z
m236 -263 c56 -29 97 -89 117 -174 l6 -28 -250 0 -250 0 6 28 c24 100 80 163
174 193 43 14 152 4 197 -19z"/>
<path d="M6732 1709 c-76 -13 -156 -55 -207 -110 l-45 -48 0 69 0 70 -155 0
-155 0 0 -780 0 -780 165 0 165 0 0 261 0 262 44 -41 c79 -73 184 -112 301
-112 235 0 413 152 482 410 25 96 22 299 -5 403 -79 290 -306 443 -590 396z
m135 -267 c52 -27 97 -82 125 -152 19 -47 22 -75 23 -190 0 -128 -1 -138 -29
-198 -49 -105 -119 -152 -228 -152 -171 0 -268 129 -268 354 0 186 57 300 173
349 55 22 147 17 204 -11z"/>
<path d="M10425 1097 c-94 -46 -145 -129 -153 -253 -12 -182 87 -310 247 -322
172 -12 287 93 299 272 8 131 -44 243 -138 295 -67 37 -187 41 -255 8z m190
-66 c79 -37 117 -104 116 -211 0 -117 -51 -196 -142 -220 -126 -34 -230 65
-231 220 -1 168 125 272 257 211z"/>
<path d="M12060 1100 c-98 -46 -151 -129 -158 -251 -11 -187 85 -315 247 -327
167 -12 282 88 297 259 13 132 -36 246 -129 303 -41 25 -60 30 -130 33 -67 3
-90 0 -127 -17z m185 -69 c50 -22 91 -69 105 -119 13 -50 13 -136 -2 -185 -26
-85 -122 -148 -203 -133 -164 31 -218 285 -87 409 50 48 120 59 187 28z"/>
<path d="M15776 1105 c-118 -42 -190 -182 -171 -335 20 -166 127 -259 284
-248 115 9 186 63 217 164 21 71 20 74 -30 74 -43 0 -43 0 -50 -42 -10 -59
-66 -114 -128 -123 -53 -8 -118 16 -155 56 -48 53 -67 173 -42 264 17 61 83
121 142 130 80 12 152 -24 176 -88 9 -23 16 -27 52 -27 41 0 41 0 35 32 -19
94 -111 158 -225 158 -37 -1 -83 -7 -105 -15z"/>
<path d="M8540 820 l0 -290 200 0 200 0 0 40 0 40 -160 0 -160 0 0 90 0 90
150 0 150 0 0 35 0 35 -150 0 -150 0 0 90 0 90 160 0 160 0 0 35 0 35 -200 0
-200 0 0 -290z"/>
<path d="M9050 821 l0 -291 118 0 c128 0 215 17 263 51 114 81 132 345 31 453
-53 56 -102 70 -264 74 l-148 4 0 -291z m298 195 c71 -37 99 -105 90 -224 -5
-76 -35 -131 -84 -159 -32 -19 -54 -23 -126 -23 l-88 0 0 216 0 217 89 -6 c49
-3 103 -12 119 -21z"/>
<path d="M9610 820 l0 -290 40 0 40 0 0 228 1 227 86 -227 85 -228 37 0 36 0
80 216 80 215 3 -215 2 -216 40 0 40 0 0 290 0 290 -54 0 -53 0 -83 -222 c-46
-123 -86 -226 -89 -230 -3 -4 -44 96 -91 222 l-85 230 -57 0 -58 0 0 -290z"/>
<path d="M10900 821 l0 -291 40 0 40 0 2 222 3 221 144 -221 143 -222 44 0 44
0 0 290 0 290 -40 0 -40 0 -2 -220 -3 -219 -140 217 -141 217 -47 3 -47 3 0
-290z"/>
<path d="M11430 1075 l0 -35 95 0 95 0 0 -255 0 -255 40 0 40 0 0 255 0 255
95 0 95 0 0 35 0 35 -230 0 -230 0 0 -35z"/>
<path d="M12530 821 l0 -291 40 0 40 0 2 220 3 221 143 -221 144 -220 44 0 44
0 0 290 0 290 -40 0 -40 0 -2 -220 -3 -219 -141 217 -141 217 -47 3 -46 3 0
-290z"/>
<path d="M13320 821 l0 -291 45 0 45 0 0 114 0 113 113 5 c130 5 175 21 208
75 29 46 30 147 2 195 -37 63 -69 73 -250 76 l-163 4 0 -291z m265 209 c83
-19 113 -104 56 -161 -29 -28 -32 -29 -130 -29 l-101 0 0 100 0 100 68 0 c37
0 85 -5 107 -10z"/>
<path d="M13850 903 c0 -115 5 -225 11 -246 26 -94 119 -144 250 -135 88 7
145 38 176 97 22 42 23 53 23 268 l0 223 -40 0 -40 0 0 -202 c0 -223 -6 -250
-63 -292 -35 -26 -117 -27 -164 -3 -58 31 -63 52 -63 287 l0 210 -45 0 -45 0
0 -207z"/>
<path d="M14430 819 l0 -291 168 4 c185 3 211 11 253 70 35 48 38 132 7 178
-13 19 -34 40 -46 46 l-22 11 25 23 c55 52 55 149 0 204 -40 41 -68 46 -247
46 l-138 0 0 -291z m315 191 c30 -28 33 -78 7 -110 -21 -25 -80 -38 -179 -39
l-63 -1 0 91 0 92 105 -5 c93 -4 108 -7 130 -28z m4 -235 c35 -18 51 -59 39
-102 -14 -54 -38 -63 -165 -63 l-113 0 0 90 0 90 105 0 c74 0 115 -4 134 -15z"/>
<path d="M14980 820 l0 -290 195 0 195 0 0 40 0 40 -150 0 -150 0 0 250 0 250
-45 0 -45 0 0 -290z"/>
<path d="M15430 820 l0 -290 40 0 40 0 0 290 0 290 -40 0 -40 0 0 -290z"/>
<path d="M16420 820 l0 -290 195 0 195 0 0 40 0 40 -150 0 -150 0 0 250 0 250
-45 0 -45 0 0 -290z"/>
<path d="M16880 820 l0 -290 45 0 45 0 0 290 0 290 -45 0 -45 0 0 -290z"/>
<path d="M17100 820 l0 -290 148 0 c200 0 248 16 289 94 33 63 11 171 -40 197
-12 6 -24 13 -26 15 -3 3 9 18 25 35 26 27 29 37 29 94 0 59 -3 67 -31 95 -41
41 -82 49 -251 50 l-143 0 0 -290z m313 197 c46 -30 40 -113 -11 -137 -15 -6
-69 -14 -119 -17 l-93 -6 0 93 0 93 99 -5 c68 -3 108 -10 124 -21z m33 -260
c33 -39 31 -81 -5 -118 -29 -29 -31 -29 -140 -29 l-111 0 0 91 0 91 116 -4
c113 -3 116 -4 140 -31z"/>
<path d="M17640 821 l0 -291 45 0 45 0 0 120 0 121 111 -3 c107 -3 113 -4 131
-29 13 -16 22 -52 27 -106 5 -44 11 -86 15 -92 6 -9 96 -17 96 -8 0 1 -7 20
-15 42 -8 22 -14 60 -15 85 0 65 -16 112 -45 136 l-26 20 24 13 c53 28 73 133
39 201 -32 65 -65 75 -259 78 l-173 4 0 -291z m330 194 c33 -30 42 -62 29
-102 -16 -50 -50 -63 -169 -63 l-100 0 0 96 0 96 109 -4 c92 -3 113 -6 131
-23z"/>
<path d="M18265 878 c-49 -128 -100 -259 -112 -291 l-22 -58 46 3 46 3 30 83
30 82 117 0 117 0 30 -82 29 -83 47 -3 c26 -2 47 -1 47 2 0 3 -41 110 -91 238
-50 128 -100 257 -111 286 l-19 52 -47 0 -47 0 -90 -232z m214 -85 c1 -10 -21
-13 -79 -13 -44 0 -80 4 -80 9 0 10 68 200 77 214 6 10 81 -183 82 -210z"/>
<path d="M18730 821 l0 -291 45 0 45 0 0 120 0 121 111 -3 c106 -3 113 -4 131
-28 12 -16 20 -49 24 -95 9 -118 7 -115 64 -115 50 0 59 7 40 26 -6 6 -15 50
-20 98 -11 92 -28 139 -56 150 -14 5 -12 10 11 28 77 60 70 199 -14 250 -33
21 -50 23 -208 26 l-173 4 0 -291z m337 185 c23 -27 32 -88 15 -112 -24 -35
-57 -44 -159 -44 l-103 0 0 96 0 97 112 -5 c106 -4 112 -6 135 -32z"/>
<path d="M19200 1105 c0 -3 50 -81 110 -174 l110 -168 0 -116 0 -117 40 0 40
0 0 114 0 115 110 170 c61 93 110 172 110 175 0 3 -21 6 -47 6 l-48 0 -79
-130 c-43 -72 -80 -130 -82 -130 -1 0 -39 59 -84 130 l-82 130 -49 0 c-27 0
-49 -2 -49 -5z"/>
</g>
</svg>
